<svg width="128" height="24" viewBox="0 0 128 24" fill="none" xmlns="http://www.w3.org/2000/svg">
<path fill-rule="evenodd" clip-rule="evenodd" d="M12.908 1.58103C12.828 1.40757 12.6999 1.26066 12.539 1.15769C12.3781 1.05472 12.1911 1 12 1C11.809 1 11.6219 1.05472 11.461 1.15769C11.3001 1.26066 11.1721 1.40757 11.092 1.58103L8.22201 7.80103L1.42101 8.60803C1.23126 8.63043 1.0519 8.70673 0.904159 8.82789C0.756417 8.94905 0.646478 9.10999 0.587352 9.29168C0.528227 9.47337 0.522391 9.6682 0.570534 9.8531C0.618678 10.038 0.718786 10.2052 0.85901 10.335L5.88901 14.985L4.55401 21.705C4.51693 21.8924 4.53426 22.0864 4.60396 22.2642C4.67365 22.442 4.79279 22.5961 4.9473 22.7083C5.1018 22.8205 5.28521 22.8862 5.47583 22.8975C5.66646 22.9087 5.85634 22.8652 6.02301 22.772L12 19.426L17.977 22.772C18.1438 22.8656 18.3339 22.9094 18.5248 22.8983C18.7157 22.8871 18.8995 22.8214 19.0542 22.709C19.2089 22.5966 19.3281 22.4422 19.3978 22.264C19.4674 22.0859 19.4845 21.8916 19.447 21.704L18.112 14.986L23.141 10.335C23.2812 10.2052 23.3813 10.038 23.4295 9.8531C23.4776 9.6682 23.4718 9.47337 23.4127 9.29168C23.3535 9.10999 23.2436 8.94905 23.0959 8.82789C22.9481 8.70673 22.7688 8.63043 22.579 8.60803L15.777 7.80003L12.908 1.58103Z" fill="#6AC6FF"/>
<path fill-rule="evenodd" clip-rule="evenodd" d="M38.908 1.58103C38.828 1.40757 38.6999 1.26066 38.539 1.15769C38.3781 1.05472 38.1911 1 38 1C37.809 1 37.6219 1.05472 37.461 1.15769C37.3001 1.26066 37.1721 1.40757 37.092 1.58103L34.222 7.80103L27.421 8.60803C27.2313 8.63043 27.0519 8.70673 26.9042 8.82789C26.7564 8.94905 26.6465 9.10999 26.5874 9.29168C26.5282 9.47337 26.5224 9.6682 26.5705 9.8531C26.6187 10.038 26.7188 10.2052 26.859 10.335L31.889 14.985L30.554 21.705C30.5169 21.8924 30.5343 22.0864 30.604 22.2642C30.6737 22.442 30.7928 22.5961 30.9473 22.7083C31.1018 22.8205 31.2852 22.8862 31.4758 22.8975C31.6665 22.9087 31.8563 22.8652 32.023 22.772L38 19.426L43.977 22.772C44.1438 22.8656 44.3339 22.9094 44.5248 22.8983C44.7157 22.8871 44.8995 22.8214 45.0542 22.709C45.2089 22.5966 45.3281 22.4422 45.3978 22.264C45.4674 22.0859 45.4845 21.8916 45.447 21.704L44.112 14.986L49.141 10.335C49.2812 10.2052 49.3813 10.038 49.4295 9.8531C49.4776 9.6682 49.4718 9.47337 49.4127 9.29168C49.3535 9.10999 49.2436 8.94905 49.0959 8.82789C48.9481 8.70673 48.7688 8.63043 48.579 8.60803L41.777 7.80003L38.908 1.58103Z" fill="#6AC6FF"/>
<path fill-rule="evenodd" clip-rule="evenodd" d="M64.908 1.58103C64.828 1.40757 64.6999 1.26066 64.539 1.15769C64.3781 1.05472 64.1911 1 64 1C63.809 1 63.6219 1.05472 63.461 1.15769C63.3001 1.26066 63.1721 1.40757 63.092 1.58103L60.222 7.80103L53.421 8.60803C53.2313 8.63043 53.0519 8.70673 52.9042 8.82789C52.7564 8.94905 52.6465 9.10999 52.5874 9.29168C52.5282 9.47337 52.5224 9.6682 52.5705 9.8531C52.6187 10.038 52.7188 10.2052 52.859 10.335L57.889 14.985L56.554 21.705C56.5169 21.8924 56.5343 22.0864 56.604 22.2642C56.6737 22.442 56.7928 22.5961 56.9473 22.7083C57.1018 22.8205 57.2852 22.8862 57.4758 22.8975C57.6665 22.9087 57.8563 22.8652 58.023 22.772L64 19.426L69.977 22.772C70.1438 22.8656 70.3339 22.9094 70.5248 22.8983C70.7157 22.8871 70.8995 22.8214 71.0542 22.709C71.2089 22.5966 71.3281 22.4422 71.3978 22.264C71.4674 22.0859 71.4845 21.8916 71.447 21.704L70.112 14.986L75.141 10.335C75.2812 10.2052 75.3813 10.038 75.4295 9.8531C75.4776 9.6682 75.4718 9.47337 75.4127 9.29168C75.3535 9.10999 75.2436 8.94905 75.0959 8.82789C74.9481 8.70673 74.7688 8.63043 74.579 8.60803L67.777 7.80003L64.908 1.58103Z" fill="#6AC6FF"/>
<path fill-rule="evenodd" clip-rule="evenodd" d="M90.908 1.58103C90.828 1.40757 90.6999 1.26066 90.539 1.15769C90.3781 1.05472 90.1911 1 90 1C89.809 1 89.6219 1.05472 89.461 1.15769C89.3001 1.26066 89.1721 1.40757 89.092 1.58103L86.222 7.80103L79.421 8.60803C79.2313 8.63043 79.0519 8.70673 78.9042 8.82789C78.7564 8.94905 78.6465 9.10999 78.5874 9.29168C78.5282 9.47337 78.5224 9.6682 78.5705 9.8531C78.6187 10.038 78.7188 10.2052 78.859 10.335L83.889 14.985L82.554 21.705C82.5169 21.8924 82.5343 22.0864 82.604 22.2642C82.6737 22.442 82.7928 22.5961 82.9473 22.7083C83.1018 22.8205 83.2852 22.8862 83.4758 22.8975C83.6665 22.9087 83.8563 22.8652 84.023 22.772L90 19.426L95.977 22.772C96.1438 22.8656 96.3339 22.9094 96.5248 22.8983C96.7157 22.8871 96.8995 22.8214 97.0542 22.709C97.2089 22.5966 97.3281 22.4422 97.3978 22.264C97.4674 22.0859 97.4845 21.8916 97.447 21.704L96.112 14.986L101.141 10.335C101.281 10.2052 101.381 10.038 101.429 9.8531C101.478 9.6682 101.472 9.47337 101.413 9.29168C101.354 9.10999 101.244 8.94905 101.096 8.82789C100.948 8.70673 100.769 8.63043 100.579 8.60803L93.777 7.80003L90.908 1.58103Z" fill="#6AC6FF"/>
<path fill-rule="evenodd" clip-rule="evenodd" d="M116.908 1.58103C116.828 1.40757 116.7 1.26066 116.539 1.15769C116.378 1.05472 116.191 1 116 1C115.809 1 115.622 1.05472 115.461 1.15769C115.3 1.26066 115.172 1.40757 115.092 1.58103L112.222 7.80103L105.421 8.60803C105.231 8.63043 105.052 8.70673 104.904 8.82789C104.756 8.94905 104.646 9.10999 104.587 9.29168C104.528 9.47337 104.522 9.6682 104.571 9.8531C104.619 10.038 104.719 10.2052 104.859 10.335L109.889 14.985L108.554 21.705C108.517 21.8924 108.534 22.0864 108.604 22.2642C108.674 22.442 108.793 22.5961 108.947 22.7083C109.102 22.8205 109.285 22.8862 109.476 22.8975C109.666 22.9087 109.856 22.8652 110.023 22.772L116 19.426L121.977 22.772C122.144 22.8656 122.334 22.9094 122.525 22.8983C122.716 22.8871 122.899 22.8214 123.054 22.709C123.209 22.5966 123.328 22.4422 123.398 22.264C123.467 22.0859 123.484 21.8916 123.447 21.704L122.112 14.986L127.141 10.335C127.281 10.2052 127.381 10.038 127.429 9.8531C127.478 9.6682 127.472 9.47337 127.413 9.29168C127.354 9.10999 127.244 8.94905 127.096 8.82789C126.948 8.70673 126.769 8.63043 126.579 8.60803L119.777 7.80003L116.908 1.58103Z" fill="#6AC6FF"/>
</svg>
