<svg width="108" height="108" viewBox="0 0 108 108" fill="none" xmlns="http://www.w3.org/2000/svg">
<g clip-path="url(#clip0_78_274)">
<path d="M43.6978 102.602C43.6978 105.589 42.2887 108 40.5489 108C38.8108 108 37.4017 105.587 37.4017 102.602V90.1327C37.4017 87.1492 38.8108 84.7378 40.5489 84.7378C42.287 84.7378 43.6978 87.1509 43.6978 90.1327V102.602ZM66.9954 102.602C66.9954 105.589 65.5847 108 63.8482 108C62.1101 108 60.6994 105.587 60.6994 102.602V90.1327C60.6994 87.1492 62.1101 84.7378 63.8482 84.7378C65.5847 84.7378 66.9954 87.1509 66.9954 90.1327V102.602Z" fill="#F79420"/>
<path d="M0.668243 69.0979C0.668243 62.0222 10.9586 64.1468 19.1734 64.1468C27.3949 64.1468 34.6916 64.0151 34.6916 71.0976C34.6916 78.1901 28.0277 83.9293 19.8163 83.9293C11.5982 83.9293 0.668243 76.1904 0.668243 69.0979ZM107.733 69.0979C107.733 62.0222 97.4413 64.1468 89.2299 64.1468C81.0051 64.1468 73.7117 64.0151 73.7117 71.0976C73.7117 78.1901 80.3756 83.9293 88.587 83.9293C96.8051 83.9293 107.733 76.1904 107.733 69.0979Z" fill="#3F96CC"/>
<path d="M13.7599 64.3611C13.7599 80.6522 31.9444 93.8434 54.3949 93.8434C76.8454 93.8434 95.0299 80.6539 95.0299 64.3611C95.0299 48.0818 76.8437 7.92773 54.3949 7.92773C31.941 7.92773 13.7599 48.0801 13.7599 64.3611Z" fill="#6AC6FF"/>
<path d="M37.7578 46.2173C42.3525 46.2173 46.0772 41.7008 46.0772 36.1294C46.0772 30.558 42.3525 26.0415 37.7578 26.0415C33.1632 26.0415 29.4384 30.558 29.4384 36.1294C29.4384 41.7008 33.1632 46.2173 37.7578 46.2173Z" fill="#F4F5F5"/>
<path d="M43.2844 36.5159C43.2844 40.2149 40.8122 43.2136 37.7646 43.2136C34.7169 43.2136 32.2397 40.2166 32.2397 36.5159C32.2397 32.8237 34.7186 29.8267 37.7646 29.8267C40.8122 29.8267 43.2844 32.8237 43.2844 36.5159Z" fill="#25333A"/>
<path d="M71.1112 46.2173C75.7059 46.2173 79.4306 41.7008 79.4306 36.1294C79.4306 30.558 75.7059 26.0415 71.1112 26.0415C66.5166 26.0415 62.7919 30.558 62.7919 36.1294C62.7919 41.7008 66.5166 46.2173 71.1112 46.2173Z" fill="#F4F5F5"/>
<path d="M76.6294 36.5159C76.6294 40.2149 74.1555 43.2136 71.1113 43.2136C68.0619 43.2136 65.583 40.2166 65.583 36.5159C65.583 32.8237 68.0636 29.8267 71.1113 29.8267C74.1555 29.8267 76.6294 32.8237 76.6294 36.5159Z" fill="#25333A"/>
<path d="M44.1281 46.7539C44.1281 41.8669 48.7266 45.5592 54.3932 45.5592C60.0682 45.5592 64.665 41.8669 64.665 46.7539C64.665 51.646 60.0598 60.8884 54.3932 60.8884C48.7249 60.8884 44.1281 51.646 44.1281 46.7539Z" fill="#F05A2A"/>
<path d="M44.1281 43.4208C44.1281 38.5406 48.7266 42.2278 54.3966 42.2278C60.0666 42.2278 64.6616 38.5406 64.6616 43.4208C64.6616 48.3129 60.0632 57.5553 54.3966 57.5553C48.7249 57.5553 44.1281 48.3146 44.1281 43.4208Z" fill="#F79420"/>
</g>
<defs>
<clipPath id="clip0_78_274">
<rect width="108" height="108" fill="white"/>
</clipPath>
</defs>
</svg>
