<svg width="100" height="100" viewBox="0 0 100 100" fill="none" xmlns="http://www.w3.org/2000/svg">
<rect x="0.5" y="0.5" width="99" height="99" rx="9.5" stroke="#6AC6FF"/>
<g clip-path="url(#clip0_88_2009)">
<path d="M50.5 35.3945C49.5502 35.3945 48.6004 35.7571 47.8762 36.481L25.0874 59.27C23.6378 60.7197 23.6378 63.0701 25.0874 64.5191C26.5365 65.9682 28.8864 65.9682 30.3362 64.5191L50.5 44.3541L70.664 64.5184C72.1136 65.9675 74.4633 65.9675 75.9123 64.5184C77.3627 63.0694 77.3627 60.719 75.9123 59.2693L53.1238 36.4803C52.3993 35.7563 51.4496 35.3945 50.5 35.3945Z" fill="#6AC6FF"/>
</g>
<defs>
<clipPath id="clip0_88_2009">
<rect width="53" height="53" fill="white" transform="matrix(1 0 0 -1 24 77)"/>
</clipPath>
</defs>
</svg>
