<svg width="53" height="53" viewBox="0 0 53 53" fill="none" xmlns="http://www.w3.org/2000/svg">
<path d="M45.05 2.6499H7.94999C5.03499 2.6499 2.64999 5.0349 2.64999 7.9499V45.0499C2.64999 47.9675 5.03499 50.3499 7.94999 50.3499H26.5V31.7999H21.2V25.2412H26.5V19.8087C26.5 14.0741 29.7118 10.0461 36.4799 10.0461L41.2578 10.0514V16.9546H38.0858C35.4517 16.9546 34.45 18.9315 34.45 20.7653V25.2438H41.2552L39.75 31.7999H34.45V50.3499H45.05C47.965 50.3499 50.35 47.9675 50.35 45.0499V7.9499C50.35 5.0349 47.965 2.6499 45.05 2.6499Z" fill="#6AC6FF"/>
</svg>
