<svg width="73" height="73" viewBox="0 0 73 73" fill="none" xmlns="http://www.w3.org/2000/svg">
<path d="M67.1044 21.1087C66.7408 19.7545 66.0279 18.5195 65.037 17.5274C64.0461 16.5353 62.8121 15.8208 61.4583 15.4555C56.4752 14.1152 36.5 14.1152 36.5 14.1152C36.5 14.1152 16.5248 14.1152 11.5417 15.4483C10.1874 15.8125 8.95266 16.5266 7.9616 17.5189C6.97055 18.5112 6.25803 19.7468 5.89561 21.1016C4.5625 26.0918 4.5625 36.5 4.5625 36.5C4.5625 36.5 4.5625 46.9082 5.89561 51.8913C6.62988 54.6431 8.79707 56.8103 11.5417 57.5445C16.5248 58.8848 36.5 58.8848 36.5 58.8848C36.5 58.8848 56.4752 58.8848 61.4583 57.5445C64.2101 56.8103 66.3701 54.6431 67.1044 51.8913C68.4375 46.9082 68.4375 36.5 68.4375 36.5C68.4375 36.5 68.4375 26.0918 67.1044 21.1087ZM30.1553 46.0527V26.9473L46.6943 36.4287L30.1553 46.0527Z" fill="#6AC6FF"/>
</svg>
