<svg width="108" height="108" viewBox="0 0 108 108" fill="none" xmlns="http://www.w3.org/2000/svg">
<g clip-path="url(#clip0_78_295)">
<path d="M54 108C83.8234 108 108 83.8234 108 54C108 24.1766 83.8234 0 54 0C24.1766 0 0 24.1766 0 54C0 83.8234 24.1766 108 54 108Z" fill="#6AC6FF"/>
<path d="M105.612 69.3053C104.845 68.4717 103.913 67.8076 102.874 67.3559C101.836 66.9042 100.715 66.6748 99.5822 66.6825C97.8627 66.675 96.1916 67.2516 94.8425 68.3179C94.1141 68.8913 93.4701 69.5644 92.9294 70.3174C92.3887 69.5644 91.7446 68.8913 91.0162 68.3179C89.6677 67.2508 87.9963 66.6741 86.2766 66.6825C85.1411 66.6722 84.0161 66.9003 82.9743 67.3521C81.9325 67.8039 80.9971 68.4693 80.2286 69.3053C78.653 71.0752 77.8005 73.3728 77.8402 75.7421C77.8402 78.2909 78.7906 80.6237 80.8272 83.0861C82.6786 85.2831 85.2768 87.5172 88.3131 90.1092C89.3499 90.9917 90.5225 91.9915 91.7445 93.0591C92.0673 93.3417 92.4818 93.4974 92.9109 93.4974C93.3399 93.4974 93.7544 93.3417 94.0773 93.0591C95.3115 91.9915 96.4718 90.9917 97.5086 90.1092C100.545 87.5172 103.168 85.2831 104.995 83.0861C107.031 80.6175 107.981 78.2909 107.981 75.7421C108.026 73.3753 107.181 71.078 105.612 69.3053Z" fill="#AADEFF"/>
<path d="M90.541 2.62308C89.7746 1.78941 88.8422 1.12537 87.8038 0.673651C86.7654 0.221933 85.6439 -0.00746125 84.5115 0.000220247C82.792 -0.00720212 81.1209 0.569411 79.7719 1.63565C79.0435 2.20905 78.3994 2.88218 77.8587 3.63519C77.32 2.88057 76.6757 2.20719 75.9456 1.63565C74.597 0.568539 72.9256 -0.0081829 71.2059 0.000220247C70.0744 -0.00812903 68.9536 0.220991 67.9161 0.672779C66.8786 1.12457 65.9474 1.78897 65.1826 2.62308C63.6027 4.39078 62.7476 6.68936 62.7881 9.05988C62.7881 11.6087 63.7385 13.9415 65.7813 16.4039C67.6327 18.6009 70.2247 20.835 73.261 23.427C74.2978 24.3095 75.4766 25.2784 76.6923 26.3769C77.0155 26.6589 77.4298 26.8146 77.8587 26.8151C78.2881 26.8168 78.7031 26.6609 79.0251 26.3769C80.2594 25.3093 81.4197 24.3095 82.4565 23.427C85.4928 20.835 88.1157 18.6009 89.9424 16.4039C91.979 13.9353 92.9294 11.6087 92.9294 9.05988C92.9691 6.6906 92.1166 4.39298 90.541 2.62308Z" fill="#AADEFF"/>
<path d="M34.1218 13.3922C33.4214 12.6282 32.5684 12.0198 31.618 11.6063C30.6676 11.1927 29.641 10.9833 28.6046 10.9915C27.0371 10.9865 25.5142 11.513 24.2846 12.485C23.6157 13.0161 23.0255 13.6394 22.5319 14.3364C22.0382 13.6394 21.4481 13.0161 20.7792 12.485C19.549 11.5138 18.0265 10.9874 16.4592 10.9915C15.4217 10.9824 14.3939 11.1914 13.4424 11.605C12.4909 12.0186 11.6369 12.6274 10.9358 13.3922C9.49341 15.0128 8.71353 17.1167 8.75108 19.2859C8.75108 21.6187 9.62125 23.754 11.485 26.0066C13.1575 28.0246 15.5582 30.0736 18.3415 32.4434C19.2857 33.2518 20.3657 34.1652 21.4827 35.1465C21.7785 35.4047 22.1578 35.547 22.5504 35.547C22.943 35.547 23.3223 35.4047 23.6181 35.1465C24.7351 34.1652 25.8089 33.2518 26.7593 32.4372C29.5426 30.0736 31.9433 28.0246 33.6096 26.0066C35.461 23.754 36.3497 21.6187 36.3497 19.2859C36.3754 17.1109 35.5799 15.0063 34.1218 13.3922Z" fill="#AADEFF"/>
<path d="M70.9221 71.78C71.3534 72.1168 71.7048 72.5449 71.9509 73.0338C72.1969 73.5226 72.3316 74.0598 72.3452 74.6069C72.3588 75.154 72.2509 75.6973 72.0294 76.1977C71.8078 76.6981 71.4781 77.1432 71.064 77.5009C67.7376 80.3398 61.8686 84.0673 53.9938 84.0673C46.1191 84.0673 40.2562 80.3645 36.9298 77.5071C36.5146 77.1494 36.184 76.7039 35.9617 76.2029C35.7395 75.7019 35.6313 75.1578 35.6449 74.6099C35.6585 74.062 35.7935 73.524 36.0403 73.0346C36.287 72.5452 36.6393 72.1167 37.0718 71.78C37.7401 71.2577 38.5676 70.9806 39.4157 70.9952C40.2638 71.0098 41.0812 71.3152 41.7312 71.8602C44.1072 73.8845 48.3902 76.6616 53.9938 76.6616C59.5975 76.6616 63.8681 73.8783 66.2626 71.8541C66.9133 71.3099 67.7311 71.0056 68.5792 70.9922C69.4274 70.9787 70.2544 71.2568 70.9221 71.78Z" fill="#187FBF"/>
<path d="M71.8971 38.9667C65.1086 38.9667 59.6222 49.2298 59.6222 45.311C59.6222 41.3921 65.1147 31.4746 71.8971 31.4746C78.6795 31.4746 84.1783 41.3489 84.1783 45.2863C84.1783 49.2236 78.6795 38.9667 71.8971 38.9667Z" fill="#187FBF"/>
<path d="M36.1029 38.9667C29.3143 38.9667 23.8217 49.2298 23.8217 45.311C23.8217 41.3921 29.3205 31.4746 36.1029 31.4746C42.8853 31.4746 48.3778 41.3489 48.3778 45.2863C48.3778 49.2236 42.8853 38.9667 36.1029 38.9667Z" fill="#187FBF"/>
</g>
<defs>
<clipPath id="clip0_78_295">
<rect width="108" height="108" fill="white"/>
</clipPath>
</defs>
</svg>
