<svg width="120" height="38" viewBox="0 0 152 49" fill="none" xmlns="http://www.w3.org/2000/svg">
<path d="M11.0427 14.555H9.62405V41.9429H0V48.1013H27.3603V41.9429H17.7362V21.2964C17.7362 17.5773 14.7391 14.5617 11.0427 14.5617V14.555Z" fill="#6AC6FF"/>
<path d="M0 6.15841H21.2395C24.6229 6.15841 27.3603 3.40421 27.3603 0H0V6.15841Z" fill="#6AC6FF"/>
<path d="M47.1079 0L38.1232 24.2517H41.6665C44.517 24.2517 47.0479 22.4423 47.987 19.7351L52.2163 7.55226L60.6814 31.9715H35.2793L29.3051 48.0946C34.6066 48.0946 39.3354 44.7306 41.0937 39.698L41.6864 37.9958H71.4111L57.4046 0H47.1079Z" fill="#6AC6FF"/>
<path d="M127.697 0L118.712 24.2517H122.255C125.106 24.2517 127.637 22.4423 128.576 19.7351L132.805 7.55226L141.27 31.9715H115.868L109.894 48.0946C115.196 48.0946 119.924 44.7306 121.683 39.698L122.275 37.9958H152L137.994 0H127.697Z" fill="#6AC6FF"/>
<path d="M97.3194 28.2724C101.043 27.4682 103.913 25.8533 105.858 23.4676C107.809 21.0954 108.802 18.0933 108.802 14.5483C108.802 10.1992 107.37 6.6543 104.539 4.00732C101.695 1.34694 97.4593 0 91.9579 0H73.9287V0.0469085C73.9287 3.76608 76.9258 6.78162 80.6222 6.78162H91.1187C94.2158 6.78162 96.5535 7.53216 98.0654 9.01312C99.5906 10.4941 100.37 12.5715 100.37 15.1782C100.37 19.6278 98.1919 22.4222 94.0759 23.2398C93.3433 23.3805 92.5307 23.4676 91.6582 23.4944C91.4851 23.5011 91.2986 23.5011 91.1121 23.5011H89.8133V32.1457L99.3175 48.0946H108.362L96.2138 28.5069L97.3061 28.2724H97.3194Z" fill="#6AC6FF"/>
<path d="M73.9287 48.0946H82.214V30.2358C82.214 26.5167 79.2169 23.5011 75.5205 23.5011H73.9287V48.1013V48.0946Z" fill="#6AC6FF"/>
</svg>
